<svg xmlns="http://www.w3.org/2000/svg" width="256" height="217" viewBox="0 0 256 217" version="1.1">
	<path d="M 0 108.504 L 0 217.008 128.250 216.754 L 256.500 216.500 256.754 108.250 L 257.009 0 128.504 0 L 0 0 0 108.504 M 0.482 109 C 0.482 168.675, 0.603 193.087, 0.750 163.250 C 0.897 133.412, 0.897 84.587, 0.750 54.750 C 0.603 24.912, 0.482 49.325, 0.482 109 M 20 108.500 L 20 176 24.500 176 L 29 176 29 108.500 L 29 41 24.500 41 L 20 41 20 108.500 M 98.049 42.908 C 96.212 46.341, 45 173.855, 45 174.997 C 45 175.699, 46.727 175.997, 49.674 175.805 L 54.348 175.500 81.162 109 C 95.910 72.425, 107.981 42.163, 107.988 41.750 C 107.995 41.337, 105.991 41, 103.535 41 C 100.166 41, 98.820 41.468, 98.049 42.908 M 163.757 41.968 C 141.068 46.100, 123.209 59.769, 113.414 80.500 C 102.882 102.790, 105.828 128.821, 121.231 149.577 C 128.967 160, 140.727 168.174, 154.500 172.699 C 161.368 174.956, 164.197 175.324, 174.500 175.303 C 184.688 175.282, 187.708 174.883, 194.500 172.665 C 225.720 162.466, 245.353 131.790, 241.001 100.008 C 236.517 67.259, 210.515 43.231, 177.766 41.574 C 172.670 41.316, 166.366 41.493, 163.757 41.968 M 159.608 52.522 C 149.813 55.211, 141.811 60.015, 133.966 67.914 C 121.824 80.141, 116.896 91.857, 116.896 108.500 C 116.896 125.143, 121.824 136.859, 133.966 149.086 C 145.612 160.813, 157.829 165.966, 174.040 165.988 C 190.733 166.011, 203.341 160.804, 215.010 149.068 C 226.608 137.402, 232 124.527, 232 108.500 C 232 92.473, 226.608 79.598, 215.010 67.932 C 206.858 59.733, 199.103 55.218, 188.540 52.522 C 181.297 50.673, 166.343 50.673, 159.608 52.522" stroke="none" fill="#ea5a06" fill-rule="evenodd"/>
</svg>